# xmcd
#
# Track frame offsets:
#	150
#	14362
#	29522
#	42340
#	53697
#	66500
#	76997
#	90002
#	113647
#	121472
#	134260
#	148277
#	160607
#	174830
#	188952
#	202370
#	214285
#	223807
#	242180
#	256472
#
# Disc length: 3588 seconds
#
# Revision: 0
# Processed by: cddbd v1.5PL3 Copyright (c) Steve Scherf et al.
# Submitted via: dBpowerAMP V4.0
#
DISCID=2a0e0214
DTITLE=Christy Lane - Chirsty Lane's Greatest Hits
DYEAR=1900
DGENRE=Spiritual
TTITLE0=One Day At A Time
TTITLE1=Everything Is Beautiful
TTITLE2=Hi's Got The Whole World In His Hands
TTITLE3=It Is No Secret
TTITLE4=Whispering Hope
TTITLE5=Peace In The Valley
TTITLE6=Just A Closer Walk WithThee
TTITLE7=How Great Thou Art
TTITLE8=Rock Of Ages
TTITLE9=Why Me
TTITLE10=Footprints
TTITLE11=Try A Little Kindness
TTITLE12=Softly And Tenderly
TTITLE13=In The Garden
TTITLE14=I'll Rise Again
TTITLE15=I Believe
TTITLE16=Amazing Grace
TTITLE17=Precious Moments
TTITLE18=Bive Them All To Jesus
TTITLE19=Just As I Am
EXTD=
EXTT0=
EXTT1=
EXTT2=
EXTT3=
EXTT4=
EXTT5=
EXTT6=
EXTT7=
EXTT8=
EXTT9=
EXTT10=
EXTT11=
EXTT12=
EXTT13=
EXTT14=
EXTT15=
EXTT16=
EXTT17=
EXTT18=
EXTT19=
PLAYORDER=
